<?xml version="1.0" encoding="iso-8859-1"?>
<!-- Generator: Adobe Illustrator 19.0.0, SVG Export Plug-In . SVG Version: 6.00 Build 0)  -->
<svg version="1.1" id="Capa_1" xmlns="http://www.w3.org/2000/svg" xmlns:xlink="http://www.w3.org/1999/xlink" x="0px" y="0px"
	 viewBox="0 0 480 480" style="enable-background:new 0 0 480 480;" xml:space="preserve">
<path style="fill:#999FED;" d="M72,72v400h400V72H72z M356.856,356.856L272,272l-84.856,84.856L272,272l-84.856-84.856L272,272
	l84.856-84.856L272,272L356.856,356.856z"/>
<path style="fill:#7C84E8;" d="M408,72V8H8v400h64V72H408z"/>
<g>
	<path style="fill:#2B3990;" d="M472,64h-56V8c0-4.418-3.582-8-8-8H8C3.582,0,0,3.582,0,8v400c0,4.418,3.582,8,8,8h56v56
		c0,4.418,3.582,8,8,8h400c4.418,0,8-3.582,8-8V72C480,67.582,476.418,64,472,64z M16,400V16h384v48H72c-4.418,0-8,3.582-8,8v328H16
		z M464,464H80V80h384V464z"/>
	<path style="fill:#2B3990;" d="M362.504,181.496c-3.124-3.123-8.188-3.123-11.312,0l-79.2,79.2l-79.2-79.2
		c-2.968-3.273-8.027-3.521-11.3-0.553s-3.521,8.027-0.553,11.3c0.176,0.195,0.362,0.38,0.557,0.557l79.2,79.2l-79.2,79.2
		c-3.251,2.992-3.461,8.053-0.469,11.304c2.992,3.251,8.053,3.461,11.304,0.469c0.163-0.15,0.319-0.306,0.469-0.469l79.2-79.2
		l79.2,79.2c3.251,2.992,8.312,2.782,11.304-0.469c2.818-3.062,2.818-7.773,0-10.835l-79.2-79.2l79.2-79.2
		C365.622,189.677,365.622,184.619,362.504,181.496L362.504,181.496z"/>
</g>
<g>
</g>
<g>
</g>
<g>
</g>
<g>
</g>
<g>
</g>
<g>
</g>
<g>
</g>
<g>
</g>
<g>
</g>
<g>
</g>
<g>
</g>
<g>
</g>
<g>
</g>
<g>
</g>
<g>
</g>
</svg>
